# xmcd
#
# Track frame offsets: 
#        150
#        18812
#        37630
#        56507
#        79827
#        97132
#        113150
#        132472
#        152312
#        170735
#        191567
#        208875
#        226415
#        241257
#        258230
#
# Disc length: 3953 seconds
#
# Revision: 0
# Processed by: cddbd v1.5.2PL0 Copyright (c) Steve Scherf et al.
# Submitted via: ExactAudioCopy v0.99pb5
#
DISCID=be0f6f0f
DTITLE=Earth Wind and Fire - Faces
DYEAR=1980
DGENRE=R&B
TTITLE0=Song In My Heart
TTITLE1=Take It To The Sky
TTITLE2=Share Your Love
TTITLE3=Turn It Into Something Good
TTITLE4=Let Me Talk
TTITLE5=Back On The Road
TTITLE6=Win Or Lose
TTITLE7=You Went Away
TTITLE8=In Time
TTITLE9=Sailaway
TTITLE10=Pride
TTITLE11=Sparkle
TTITLE12=You
TTITLE13=And Love Goes On
TTITLE14=Faces
EXTD=
EXTT0=
EXTT1=
EXTT2=
EXTT3=
EXTT4=
EXTT5=
EXTT6=
EXTT7=
EXTT8=
EXTT9=
EXTT10=
EXTT11=
EXTT12=
EXTT13=
EXTT14=
PLAYORDER=
